<svg width="138" height="138" viewBox="0 0 138 138" fill="none" xmlns="http://www.w3.org/2000/svg">
<g filter="url(#filter0_f)">
<path d="M58.4132 121.651C53.4542 124.082 47.4634 122.032 45.0325 117.073L16.2778 58.4135C13.8469 53.4544 15.8963 47.4637 20.8554 45.0327L79.515 16.278C84.4741 13.8471 90.4649 15.8966 92.8958 20.8557L121.65 79.5152C124.081 84.4743 122.032 90.4651 117.073 92.896L58.4132 121.651ZM43.3844 53.2838C38.4285 55.7212 36.3868 61.7146 38.8241 66.6705L52.5324 94.5441C54.9697 99.5 60.9632 101.542 65.9191 99.1044L93.7927 85.3961C98.7486 82.9587 100.79 76.9653 98.353 72.0094L84.6447 44.1358C82.2073 39.1799 76.2139 37.1382 71.258 39.5755L43.3844 53.2838Z" fill="#A4C1C9" fill-opacity="0.09"/>
</g>
<defs>
<filter id="filter0_f" x="0.254761" y="0.254883" width="137.419" height="137.419" filterUnits="userSpaceOnUse" color-interpolation-filters="sRGB">
<feFlood flood-opacity="0" result="BackgroundImageFix"/>
<feBlend mode="normal" in="SourceGraphic" in2="BackgroundImageFix" result="shape"/>
<feGaussianBlur stdDeviation="7.5" result="effect1_foregroundBlur"/>
</filter>
</defs>
</svg>
