<svg width="21" height="21" viewBox="0 0 21 21" fill="none" xmlns="http://www.w3.org/2000/svg">
<path d="M19.5069 0.741211H1.49334C1.06014 0.741211 0.710144 1.0912 0.710144 1.52441V19.5379C0.710144 19.9711 1.06014 20.3211 1.49334 20.3211H19.5069C19.9401 20.3211 20.2901 19.9711 20.2901 19.5379V1.52441C20.2901 1.0912 19.9401 0.741211 19.5069 0.741211ZM17.2454 6.4561H15.6814C14.4552 6.4561 14.2178 7.0386 14.2178 7.89522V9.78224H17.145L16.7632 12.7364H14.2178V20.3211H11.1658V12.7388H8.61309V9.78224H11.1658V7.60397C11.1658 5.07571 12.7102 3.69778 14.9668 3.69778C16.0486 3.69778 16.9762 3.77855 17.2478 3.81526V6.4561H17.2454Z" fill="#A9A9A9"/>
</svg>
