<svg width="20" height="21" viewBox="0 0 20 21" fill="none" xmlns="http://www.w3.org/2000/svg">
<path d="M19.1008 0.741211H1.0873C0.654099 0.741211 0.304108 1.0912 0.304108 1.52441V19.5379C0.304108 19.9711 0.654099 20.3211 1.0873 20.3211H19.1008C19.534 20.3211 19.884 19.9711 19.884 19.5379V1.52441C19.884 1.0912 19.534 0.741211 19.1008 0.741211ZM6.112 17.4257H3.20683V8.08123H6.112V17.4257ZM4.66064 6.80364C4.3276 6.80364 4.00204 6.70488 3.72513 6.51986C3.44822 6.33483 3.23239 6.07185 3.10494 5.76416C2.97749 5.45647 2.94415 5.1179 3.00912 4.79126C3.07409 4.46462 3.23447 4.16459 3.46996 3.92909C3.70546 3.6936 4.00549 3.53322 4.33213 3.46825C4.65877 3.40328 4.99734 3.43663 5.30503 3.56407C5.61272 3.69152 5.8757 3.90735 6.06073 4.18426C6.24575 4.46117 6.34451 4.78673 6.34451 5.11977C6.34206 6.04982 5.58824 6.80364 4.66064 6.80364ZM16.9886 17.4257H14.0859V12.8808C14.0859 11.7965 14.0663 10.4039 12.5758 10.4039C11.0657 10.4039 10.8332 11.5836 10.8332 12.8024V17.4257H7.93293V8.08123H10.7182V9.35882H10.7573C11.144 8.62457 12.0912 7.84872 13.5059 7.84872C16.4477 7.84872 16.9886 9.78468 16.9886 12.3007V17.4257Z" fill="#A9A9A9"/>
</svg>
