<svg width="22" height="17" viewBox="0 0 22 17" fill="none" xmlns="http://www.w3.org/2000/svg">
<path d="M21.0874 2.22413C20.3384 2.5472 19.5234 2.77971 18.6839 2.87027C19.5555 2.35247 20.2082 1.53443 20.5195 0.56963C19.7017 1.05616 18.8057 1.39733 17.8714 1.578C17.4809 1.16052 17.0085 0.827938 16.4839 0.600976C15.9592 0.374015 15.3934 0.257536 14.8218 0.258799C12.5089 0.258799 10.6488 2.13358 10.6488 4.43422C10.6488 4.75729 10.688 5.08035 10.7516 5.39119C7.28842 5.21007 4.19968 3.55557 2.14624 1.02242C1.77208 1.66149 1.57601 2.38916 1.57842 3.1297C1.57842 4.57862 2.31512 5.85621 3.43851 6.60759C2.77648 6.58151 2.12995 6.39955 1.5515 6.07648V6.12788C1.5515 8.15685 2.98573 9.83827 4.89722 10.225C4.53832 10.3182 4.16911 10.3659 3.7983 10.3669C3.52662 10.3669 3.26964 10.34 3.0102 10.3033C3.53886 11.9578 5.07833 13.1595 6.9115 13.1987C5.47727 14.3221 3.68082 14.9829 1.73017 14.9829C1.38018 14.9829 1.05711 14.9707 0.721802 14.9315C2.5721 16.1185 4.7675 16.8038 7.13178 16.8038C14.8071 16.8038 19.007 10.4453 19.007 4.92616C19.007 4.74505 19.007 4.56393 18.9948 4.38282C19.8073 3.78808 20.5195 3.05138 21.0874 2.22413Z" fill="#A9A9A9"/>
</svg>
