<svg width="41" height="31" viewBox="0 0 41 31" fill="none" xmlns="http://www.w3.org/2000/svg">
<path d="M14.5321 29.5648L1.24185 16.4585C1.1652 16.3829 1.10438 16.2931 1.06287 16.1941C1.02137 16.0952 1 15.989 1 15.8819C1 15.7747 1.02137 15.6686 1.06287 15.5696C1.10438 15.4707 1.1652 15.3809 1.24185 15.3053L4.59704 11.9751C4.91765 11.6572 5.43584 11.6572 5.75645 11.9751L14.506 20.5981C14.8266 20.916 15.3486 20.9123 15.6692 20.5944L35.0025 1.24163C35.3231 0.920074 35.8451 0.920074 36.1694 1.23794L39.5283 4.56812C39.8489 4.88599 39.8489 5.39974 39.532 5.71761L18.4689 26.7891L18.4726 26.7928L15.6953 29.5611C15.3747 29.879 14.8527 29.879 14.5321 29.5648Z" fill="#293229" stroke="#40C0E7" stroke-miterlimit="10"/>
</svg>
