<svg width="48" height="36" viewBox="0 0 48 36" fill="none" xmlns="http://www.w3.org/2000/svg">
<path d="M17.0327 34.8206L1.21095 19.2568C1.1197 19.1671 1.04729 19.0604 0.997883 18.9429C0.948472 18.8254 0.923035 18.6994 0.923035 18.5721C0.923035 18.4449 0.948472 18.3189 0.997883 18.2014C1.04729 18.0839 1.1197 17.9772 1.21095 17.8874L5.20523 13.9328C5.5869 13.5554 6.2038 13.5554 6.58547 13.9328L17.0017 24.1726C17.3833 24.5501 18.0047 24.5457 18.3863 24.1683L41.4022 1.18684C41.7839 0.80499 42.4052 0.80499 42.7914 1.18245L46.7901 5.13705C47.1717 5.51451 47.1717 6.1246 46.7945 6.50206L21.7193 31.5244L21.7238 31.5288L18.4174 34.8162C18.0357 35.1937 17.4144 35.1937 17.0327 34.8206Z" fill="#40C0E7" stroke="#40C0E7" stroke-miterlimit="10"/>
</svg>
